<?xml version="1.0" encoding="UTF-8"?>
<svg id="Capa_1" data-name="Capa 1" xmlns="http://www.w3.org/2000/svg" viewBox="0 0 514.07 500">
  <defs>
    <style>
      .cls-1 {
        fill: #ffc69e;
        stroke-width: 9.01px;
      }

      .cls-1, .cls-2, .cls-3, .cls-4 {
        stroke-linejoin: round;
      }

      .cls-1, .cls-3, .cls-4 {
        stroke: #777;
      }

      .cls-2 {
        fill: #fff;
        stroke: #fff;
        stroke-linecap: round;
        stroke-width: 5.14px;
      }

      .cls-5 {
        fill: #777;
      }

      .cls-6 {
        fill: #727272;
      }

      .cls-6, .cls-7, .cls-4 {
        isolation: isolate;
      }

      .cls-6, .cls-4 {
        font-family: ArialMT, Arial;
        font-size: 84.31px;
      }

      .cls-8 {
        fill: #ffa766;
      }

      .cls-3 {
        fill: #fff7f2;
        stroke-width: 9.26px;
      }

      .cls-4 {
        fill: none;
        stroke-width: 1.5px;
      }
    </style>
  </defs>
  <g id="Layer">
    <path class="cls-5" d="M18.9,476.51c-2.57,0-4.65,2.08-4.65,4.65s2.08,4.67,4.65,4.67c158.57-.01,317.13-.03,475.69-.05,2.55,0,4.62-2.07,4.62-4.62s-2.07-4.61-4.62-4.61c-158.57-.01-317.13-.03-475.69-.05Z"/>
    <path class="cls-3" d="M37.12,403.71h54.62v59.69h-54.62v-59.69Z"/>
    <path class="cls-3" d="M128,344.02h54.62v119.38h-54.62v-119.38Z"/>
    <path class="cls-3" d="M218.12,344.02h54.62v119.38h-54.62v-119.38Z"/>
    <path class="cls-3" d="M309,262.1h54.62v201.29h-54.62v-201.29Z"/>
    <path class="cls-3" d="M401.91,202.64h54.62v260.75h-54.62V202.64Z"/>
    <path class="cls-1" d="M37.32,320.9c2.86-36.45,34.72-63.68,71.17-60.81,36.45,2.86,63.68,34.72,60.81,71.17-2.86,36.45-34.72,63.67-71.17,60.81-36.45-2.86-63.67-34.72-60.81-71.17Z"/>
    <g class="cls-7">
      <text class="cls-6" transform="translate(80.86 280.1)"><tspan x="0" y="0"> </tspan></text>
      <text class="cls-4" transform="translate(80.86 280.1)"><tspan x="0" y="0"> </tspan></text>
      <text class="cls-6" transform="translate(80.86 356.42)"><tspan x="0" y="0">$</tspan></text>
      <text class="cls-4" transform="translate(80.48 356.05)"><tspan x="0" y="0">$</tspan></text>
      <text class="cls-6" transform="translate(127.75 356.42)"><tspan x="0" y="0"> </tspan></text>
      <text class="cls-4" transform="translate(127.75 356.42)"><tspan x="0" y="0"> </tspan></text>
    </g>
    <g>
      <path class="cls-8" d="M328.62,29.41c21.37-17.6,49.32-27.26,79.1-24.92,61.02,4.79,106.6,58.13,101.81,119.15-4.78,61.02-58.13,106.6-119.15,101.81-61.02-4.79-106.6-58.13-101.81-119.15,1.73-22.01,9.77-42.01,22.22-58.37"/>
      <path class="cls-5" d="M400.37,0c-11.18-.14-22.38,1.37-33.13,4.46-15.1,4.35-29.05,11.84-41.23,21.73-1.77,1.44-2.04,4.05-.61,5.82,1.44,1.77,4.04,2.04,5.82.6,11.32-9.19,24.27-16.16,38.31-20.2,9.97-2.87,20.36-4.26,30.73-4.12,11.95.15,23.87,2.29,35.11,6.35,28.51,10.3,51.63,32.78,62.81,60.96,4.76,11.99,7.29,24.8,7.48,37.7.2,13.48-2.16,27-6.96,39.6-5.11,13.42-12.98,25.75-22.97,36.08-10.3,10.65-22.82,19.13-36.54,24.71-12.76,5.19-26.49,7.84-40.27,7.8-13.46-.04-26.9-2.6-39.4-7.59-11.19-4.48-21.6-10.88-30.65-18.84-8.54-7.5-15.88-16.37-21.64-26.16-4.94-8.41-8.73-17.49-11.2-26.92-5.85-22.31-4.19-46.43,4.64-67.73,3.5-8.45,8.12-16.37,13.61-23.67,1.45-1.93,1.07-4.66-.86-6.11-1.93-1.45-4.67-1.07-6.12.86-6.21,8.26-11.37,17.25-15.21,26.85-9.56,23.93-10.81,50.94-3.47,75.64,2.82,9.5,6.9,18.63,12.06,27.09,6.4,10.49,14.49,19.95,23.85,27.91,9.95,8.45,21.34,15.19,33.54,19.82,13.31,5.06,27.57,7.59,41.8,7.49,14.87-.1,29.68-3.11,43.4-8.84,14.48-6.05,27.68-15.08,38.58-26.37,10.99-11.39,19.59-25.03,25.09-39.87,5.17-13.97,7.55-28.91,7.08-43.79-.44-13.87-3.42-27.64-8.77-40.45-12.36-29.58-36.87-53.07-67.05-63.95C426.08,2.47,413.24.17,400.37,0Z"/>
    </g>
    <path class="cls-2" d="M398.9,136.33c3.81,0,5.55-2.61,5.55-6.09v-1.85c.11-7.18,2.66-10.17,11.37-16.15,9.35-6.31,15.28-13.6,15.28-24.1,0-16.32-13.27-25.67-29.81-25.67-12.29,0-23.06,5.82-27.69,16.32-1.14,2.56-1.63,5.06-1.63,7.13,0,3.1,1.8,5.28,5.11,5.28,2.77,0,4.62-1.63,5.44-4.3,2.77-10.33,9.63-14.25,18.38-14.25,10.61,0,18.93,5.98,18.93,15.45,0,7.78-4.84,12.13-11.8,17.02-8.54,5.93-14.79,12.29-14.79,21.87v3.43c0,3.48,1.9,5.93,5.66,5.93ZM399.37,167.48c4.35,0,7.78-3.48,7.78-7.72s-3.43-7.72-7.78-7.72-7.72,3.43-7.72,7.72,3.48,7.72,7.72,7.72Z"/>
  </g>
</svg>